<svg width="800px" height="800px" viewBox="0 0 32 32" fill="none" xmlns="http://www.w3.org/2000/svg">
<g id="SVGRepo_bgCarrier" stroke-width="0"/>
<g id="SVGRepo_tracerCarrier" stroke-linecap="round" stroke-linejoin="round"/>
<g id="SVGRepo_iconCarrier"> <path d="M2 2H30V30H2V2Z" fill="#F7DF1E"/> <path d="M20.5 24.5C20.5 24.5 21.5 26 23.5 26C25.5 26 26.5 25 26.5 23.5C26.5 22 26.5 19 26.5 19H28.5C28.5 19 28.5 22.5 28.5 23.5C28.5 25.5 27 28 23.5 28C20 28 18.5 26 18.5 26L20.5 24.5ZM16 24.5C16 24.5 17 26 19 26C21 26 22 25 22 23.5C22 22 22 19 22 19H24C24 19 24 22.5 24 23.5C24 25.5 22.5 28 19 28C15.5 28 14 26 14 26L16 24.5Z" fill="#000000"/> </g>
</svg>
